<svg width="851.034" height="527.71012" xmlns="http://www.w3.org/2000/svg">

 <g>
  <title>Layer 1</title>
  <g id="svg_21">
   <path id="svg_22" fill="#ffb6b6" d="m175.95924,308.39634c0.77128,6.44008 -1.92573,12.05864 -6.02397,12.54945c-4.09823,0.49081 -8.04572,-4.33198 -8.817,-10.77207c-0.33761,-2.81904 -0.01053,-5.48059 0.80761,-7.62363l-2.92577,-27.32945l12.85422,-1.09986l1.51992,27.05823c1.30105,1.88924 2.24738,4.39829 2.58499,7.21733z"/>
   <path id="svg_23" fill="#6c63ff" d="m138.94651,126.90164s6.6597,0.09242 11.07222,8.70288c2.34477,4.57552 17.58599,86.58475 17.58599,86.58475l4.28181,25.93722l-2.20056,4.2898c3.49813,5.35033 4.46115,11.97018 2.63244,18.09544l0,0l4.18343,25.34131l-19.6717,0.1059l-15.35181,-66.38482l-12.90824,-38.50054l10.37642,-64.17193l0,-0.00001z"/>
  </g>
  <g id="svg_1">
   <polygon id="svg_2" fill="#ffb6b6" points="697.47755 504.63692 688.62985 502.56229 693.98085 461.78275 707.03805 464.84351 697.47755 504.63692"/>
   <path id="svg_3" fill="#2f2e41" d="m662.54575,515.15376l0,0c-0.38553,1.48556 0.35618,2.96347 1.65667,3.30097l17.45504,4.52987s3.50962,-6.459 11.28418,-7.61301l-2.0797,10.00172l9.00444,2.3368l3.0303,-16.16374s4.61363,-7.87107 0.73829,-13.51229c-3.8754,-5.64123 0.01953,-3.98514 0.01953,-3.98514l0.58288,-10.3396l-14.02192,-1.9311l-4.10415,15.40311l-10.57766,13.60114l-10.92696,2.27089c-0.97255,0.20211 -1.78239,1.02754 -2.0608,2.10037l-0.00012,0l-0.00002,0.00001z"/>
  </g>
  <g id="svg_4">
   <polygon id="svg_5" fill="#ffb6b6" points="782.29697 495.01501 774.22736 499.19441 751.76584 464.74032 763.67415 458.57179 782.29697 495.01501"/>
   <path id="svg_6" fill="#2f2e41" d="m762.60596,525.72494l0,0c0.67349,1.37911 2.19817,2.01917 3.40547,1.42959l16.20422,-7.91335s-1.5357,-7.18872 3.6187,-13.12233l4.9262,8.94942l8.35919,-4.08222l-8.21238,-14.24802s-1.61567,-8.97937 -8.22856,-10.74327c-6.61294,-1.76388 -2.57738,-3.03955 -2.57738,-3.03955l-6.28286,-8.23241l-11.90624,7.65408l6.90199,14.36879l0.81302,17.21096l-6.82225,8.83246c-0.60722,0.78612 -0.6854,1.93984 -0.19902,2.93579l-0.00009,0.00007l-0.00001,-0.00001z"/>
  </g>
  <path fill="#2f2e41" d="m744.8664,130.86708l45.20876,0c-0.06635,-2.12411 0.385,-4.23247 1.31509,-6.14327c0.02618,2.12043 0.4923,4.21233 1.36886,6.14327l2.05331,0c3.14093,-0.00323 5.68636,-2.54866 5.68959,-5.68959l0,-29.37783c-0.00167,-14.38395 -12.29998,-35.94663 -25.66332,-26.92364c-0.43119,-0.02249 -7.20546,-3.02298 -7.63666,-3.02298c-11.75647,0.00953 -15.79918,10.61875 -19.34955,21.82632c-4.04556,-1.86421 -6.83259,5.91735 -8.84911,19.61378c-0.58847,3.99691 -1.11131,8.49753 -1.58067,13.40914c-1.29601,4.12104 0.99411,8.51242 5.11515,9.80844c0.75448,0.23727 1.54057,0.35875 2.33148,0.36028l-0.00292,-0.00391l-0.00001,-0.00001z" id="f-3045"/>
  <path fill="#ffb6b6" d="m656.15215,298.82109c-2.24102,5.31315 -1.31703,10.77591 2.06405,12.20247s7.93843,-1.72478 10.17949,-7.03989c0.92459,-2.11089 1.33028,-4.41252 1.18308,-6.71232l9.21345,-22.63225l-10.71235,-4.09779l-7.94921,22.74759c-1.74966,1.49947 -3.11485,3.39609 -3.98144,5.53121l0.00292,0.00098l0.00001,0z" id="g-3046"/>
  <path fill="#6c63ff" d="m755.20818,120.92324l21.60854,4.52019l-3.31461,9.94286l6.62922,76.04931l-11.04774,24.48707l-67.3932,-5.52435l16.57209,-33.14611s-6.62922,-27.61981 2.20974,-33.14611c8.83896,-5.5263 23.20131,-33.14612 23.20131,-33.14612l11.53466,-10.03674l-0.00001,0z" id="h-3047"/>
  <path fill="#2f2e41" d="m775.35105,129.8414l19.14359,7.75072l-6.62922,97.22273l14.36233,83.96527l-46.40163,7.7341s5.52435,-185.60749 8.83799,-188.9221s10.68694,-7.7556 10.68694,-7.7556l0,0.00489l0,-0.00001z" id="i-3048"/>
  <path fill="#2f2e41" d="m737.85879,141.96662s-12.45572,-7.88076 -19.18565,-2.04548s-58.54249,146.89009 -58.54249,146.89009l13.97514,6.07189l32.05102,-67.20156l31.70197,-83.71494l0.00001,0z" id="j-3049"/>
  <path fill="#2f2e41" d="m702.17636,379.62722l-12.63659,97.14449l17.67695,1.10488s9.19095,-25.07958 19.67647,-54.62168c2.23223,-6.26453 4.51824,-12.72752 6.78371,-19.20128c2.45222,-7.0262 4.89467,-14.05335 7.21393,-20.8361c5.73359,-16.72656 10.76124,-31.9513 13.63292,-41.89413c0.4967,-1.74531 0.93866,-3.32438 1.30335,-4.71771c7.72922,-29.69754 12.15164,-107.3054 12.15164,-107.3054l-64.07859,-5.52435l-0.68443,0.85065l-13.67595,17.09127l0.64043,3.61284l17.03651,95.55468l-5.03742,38.74577l-0.00294,-0.00391l0.00001,-0.00002z" id="k-3050"/>
  <path fill="#2f2e41" d="m707.21378,340.8844l-5.03742,38.74577l22.65963,39.89266l2.05331,3.73407l31.19939,56.69844l15.41244,-8.73922s-20.05193,-46.08191 -32.61422,-87.99854c-1.39233,-4.60722 -2.68494,-9.17042 -3.84457,-13.61141c-3.41435,-13.00422 2.1765,-36.73451 -0.01076,-43.27573c-7.39091,-22.07393 -31.4761,-66.23356 -42.6568,-86.23856l-4.19851,5.23689l17.03751,95.55563z" id="l-3051"/>
  <path fill="#2f2e41" d="m743.9522,130.12788l-22.37119,8.57399l-58.5552,171.24516l35.35391,5.52435l16.57207,-99.43248l29.00041,-85.91101l0,-0.00001z" id="m-3052"/>
  <path fill="#ffb6b6" d="m799.89776,314.97271c0.56906,5.73847 3.99122,10.09635 7.64316,9.7336c3.65194,-0.36275 6.15011,-5.30825 5.58009,-11.04869c-0.19625,-2.29619 -0.93954,-4.512 -2.16769,-6.46203l-2.71818,-24.28368l-11.36843,1.51846l3.88661,23.7782c-0.8213,2.15404 -1.11468,4.47348 -0.85556,6.76415l0,-0.00001z" id="n-3053"/>
  <path fill="#2f2e41" d="m786.75859,137.59701s14.36233,-3.31461 18.78182,4.41948c4.41949,7.7341 6.62922,157.98768 6.62922,157.98768l-15.19735,1.10488l-8.00298,-74.01948l-2.20974,-89.48963l-0.00098,-0.00292l0.00001,-0.00001z" id="o-3054"/>
  <circle fill="#ffb6b6" r="22.96566" cy="95.27753" cx="768.42948" id="p"/>
  <path fill="#2f2e41" d="m777.64792,130.8661l11.34185,0c0.57624,0 1.06639,-0.44433 1.09326,-1.01995l0.00311,-0.06342c0.06184,-1.19995 1.74529,-1.40182 2.13615,-0.26563c0.15722,0.45703 0.33628,0.90723 0.53683,1.349l1.11563,0l0,-35.40591c0,-6.07277 -4.92295,-10.99572 -10.99572,-10.99572l-0.00002,0c-5.18485,0 -9.66517,3.62192 -10.75161,8.69166c0,0 -7.70764,9.45382 -3.16496,14.76889s-2.06612,9.6413 -2.06612,9.6413c-1.46688,6.84501 3.75119,13.29979 10.75161,13.29979l-0.00001,-0.00001z" id="q-3055"/>
  <rect fill="#e6e6e6" height="1.683" width="851.034" y="525.96296" id="w"/>
  <path id="svg_8" fill="#e6e6e6" d="m139.14725,495.99986c-0.09955,-0.08735 -0.17635,-0.1327 -0.22823,-0.13225c-1.24578,0.01087 -2.35574,0.6647 -2.96748,1.74589l-13.41355,24.91115c-0.30678,0.54215 -0.45736,1.13526 -0.45219,1.72702s0.16608,1.18224 0.48219,1.71895c0.63231,1.07342 30.25589,1.45896 30.25589,1.45896c1.24578,-0.01087 4.66493,-15.33629 -13.67662,-31.42972l-0.00001,0z"/>
  <g id="svg_9">
   <polygon id="svg_10" fill="#ffb6b6" points="87.87977 521.39432 98.06087 521.30445 102.56129 481.9917 87.53492 482.12392 87.87977 521.39432"/>
   <path id="svg_11" fill="#2f2e41" d="m122.75954,520.85887l0,0c0.32166,0.53113 0.50397,2.25284 0.50939,2.87371l0,0c0.01666,1.90841 -1.51688,3.46902 -3.42535,3.48568l-31.52974,0.27523c-1.3019,0.01136 -2.36658,-1.03482 -2.37794,-2.33679l-0.01146,-1.31268s-1.59418,-3.93168 1.57461,-8.82251c0,0 4.02438,3.7728 9.93611,-2.24305l1.73086,-3.20131l12.81162,9.19921l7.06382,0.80696c1.54542,0.17653 2.91219,-0.05491 3.71796,1.27556l0.00012,0l0,-0.00001z"/>
  </g>
  <g id="svg_12">
   <polygon id="svg_13" fill="#ffb6b6" points="126.61278 487.4534 136.28638 490.62901 153.14057 454.82841 138.86336 450.14112 126.61278 487.4534"/>
   <path id="svg_14" fill="#2f2e41" d="m159.82676,498.11722l0,0c0.13461,0.60617 -0.2441,2.29558 -0.43781,2.88549l0,0c-0.59543,1.81322 -2.54801,2.80047 -4.36129,2.20502l-29.95706,-9.8374c-1.23697,-0.4062 -1.91049,-1.73827 -1.50428,-2.97529l0.40956,-1.24721s-0.251,-4.23516 4.31728,-7.85348c0,0 2.60407,4.86297 10.13112,1.05738l2.66498,-2.47834l9.19051,12.81786l6.43329,3.02681c1.40748,0.66219 2.77638,0.88068 3.11359,2.39913l0.00012,0.00004l-0.00001,-0.00001z"/>
  </g>
  <g id="svg_18">
   <path id="svg_19" fill="#ffb6b6" d="m36.44484,309.39634c-0.77128,6.44008 1.92573,12.05864 6.02397,12.54945c4.09823,0.49081 8.04572,-4.33198 8.817,-10.77207c0.33761,-2.81904 0.01053,-5.48059 -0.80761,-7.62363l2.92577,-27.32945l-12.85422,-1.09986l-1.51992,27.05823c-1.30105,1.88924 -2.24738,4.39829 -2.58499,7.21733z"/>
   <path id="svg_20" fill="#6c63ff" d="m75.45757,127.90164s-6.6597,0.09242 -11.07222,8.70288c-2.34477,4.57552 -17.58599,86.58475 -17.58599,86.58475l-4.28181,25.93722l2.20056,4.2898c-3.49813,5.35033 -4.46115,11.97018 -2.63244,18.09544l0,0l-4.18343,25.34131l19.6717,0.1059l15.35181,-66.38482l12.90824,-38.50054l-10.37642,-64.17193l0,-0.00001z"/>
  </g>
  <polygon id="svg_15" fill="#2f2e41" points="140.27182 259.50701 160.61287 324.72822 184.45933 383.34387 148.31373 467.68921 128.20204 459.85303 146.20204 386.85303 115.43255 332.3469 100.8914 495.97076 83.20204 493.85303 60.20204 297.85303 63.80919 255.23154 140.27182 259.50701"/>
  <circle id="svg_16" fill="#ffb6b6" r="22.14743" cy="85.19547" cx="115.74037"/>
  <path id="svg_17" fill="#2f2e41" d="m101.07518,88.48765c1.76766,0.96691 0.09245,5.58681 1.19716,5.98579c1.27693,0.46118 5.93022,-4.8393 5.9858,-10.77442c0.01682,-1.79632 -0.39682,-2.65871 0,-4.78863c0.51906,-2.78608 2.11399,-6.0725 3.59148,-5.98579c0.87582,0.0514 1.73155,1.28933 1.79574,2.39432c0.08998,1.54866 -1.41414,2.15875 -1.19716,2.9929c0.41328,1.58882 6.73065,2.68366 8.97869,0c1.76242,-2.10395 0.40897,-5.79642 1.19716,-5.98579c0.58099,-0.13959 1.20547,1.8934 3.59147,4.19006c0.89895,0.86528 2.23588,2.15215 2.99289,1.79574c1.09393,-0.51504 0.29779,-4.14186 0.59858,-4.19005c0.24907,-0.03991 0.40632,2.50945 1.79574,4.78863c1.78505,2.92817 5.46609,5.18433 7.18295,4.19006c1.0519,-0.60917 1.13445,-2.30414 1.19716,-3.59147c0.13211,-2.71206 4.07116,-8.95163 3.05054,-11.85249c-2.07729,-5.90413 -5.63171,-1.74055 -7.24059,-3.71057c-2.17805,-2.66696 -4.13096,-1.23198 -7.78153,-4.19006c-3.56625,-2.88975 -3.59834,-5.79541 -5.98579,-5.98579c-2.15012,-0.17146 -2.91391,2.12227 -5.38721,1.79574c-2.09519,-0.27662 -2.55172,-2.05529 -4.19005,-1.79574c-1.49996,0.23762 -1.59836,1.80471 -3.59148,2.39431c-1.27246,0.37642 -1.55225,-0.16768 -2.9929,0c-2.99766,0.3489 -5.01022,3.0799 -5.38721,3.59147c-1.45334,1.97216 -0.88888,2.80343 -2.39432,4.78863c-1.29823,1.71197 -4.17655,0.98618 -5.2584,1.84136c-3.53501,2.79437 -5.05257,7.94601 -5.08122,13.81704c-0.02004,4.10636 0.51613,6.18089 1.71261,11.36357c0.90854,3.9354 5.11241,9.01992 7.42984,11.28709c0.62205,0.60857 2.36593,2.31462 3.59147,1.79574c1.16134,-0.49169 1.19573,-2.7012 1.19716,-2.9929c0.00488,-1.00333 -0.26277,-2.24472 -2.39431,-5.38721c-2.23904,-3.30096 -3.12818,-3.67745 -2.99289,-4.78863c0.23915,-1.96417 3.37969,-3.76359 4.78863,-2.99289l-0.00001,-0.00002z"/>
  <path id="svg_24" fill="#2f2e41" d="m740.8246,91.86717c0.81646,1.33737 5.15087,-3.55544 11.80673,-4.09503c1.69499,-0.14077 5.51504,6.3474 9.89715,6.44127c2.90418,0.05864 4.69215,0.03516 8.26815,0c4.22706,-0.04697 5.38459,-0.14077 6.20111,-1.17312c1.58125,-2.00606 0.27901,-5.57231 1.03352,-5.86559c0.63043,-0.24638 2.26341,1.95909 3.10056,4.69247c1.75699,5.73656 -4.54751,13.72549 -5.16759,21.11612c-0.66147,7.96545 5.84969,-7.29683 5.16759,0c-0.76479,8.21183 -3.50364,7.59004 -3.47261,10.55806c0.01028,0.44579 0.12402,0.83287 0.37205,1.17312c0.217,0.30502 0.43406,0.42231 4.13407,1.17312c4.42343,0.90325 6.64552,1.34904 7.23463,1.17312c1.51924,-0.44579 3.05924,-2.92105 4.13407,-4.69247c1.77768,-2.89764 0.51676,0.02341 0,-3.51935c-0.49613,-3.42556 -2.04641,-3.87127 -2.06704,-7.03871c-0.02069,-3.98863 2.42874,-5.1969 4.13407,-9.38494c3.15222,-7.74262 0.07235,-16.70519 -1.03352,-19.94301c-0.53111,-1.55273 -1.49448,-3.51793 -3.18282,-6.76486c-1.3554,-2.60663 -3.1543,-4.90283 -5.34821,-6.62332c-3.2882,-2.57864 -7.10735,-4.34553 -11.2368,-5.04562c-2.26186,-0.38347 -4.56791,-0.18209 -6.79157,0.42436l-5.76014,1.57094c-2.42119,0.66031 -4.70358,1.85709 -6.71607,3.52159l0,0c-1.87576,0.00708 -3.50231,1.3832 -4.14547,3.38327c-0.06731,0.20931 -0.12855,0.33123 -0.17896,0.31334c-10.38291,-3.684 -10.37593,7.22737 -10.26209,14.04358c0.01165,0.69764 -0.0104,1.31503 -0.08986,1.81653l0,0.03523c-0.20672,1.34904 -0.25838,2.33449 -0.03097,2.7099l0.00002,0z"/>
  <rect id="svg_25" fill="#3f3d56" height="2" width="109.30713" y="152.12787" x="496.54845"/>
  <path id="svg_26" fill="#3f3d56" d="m627.85558,166.09857c-7.71973,0 -14,-6.28027 -14,-14s6.28027,-14 14,-14s14,6.28027 14,14s-6.28027,14 -14,14zm0,-26c-6.6167,0 -12,5.3833 -12,12s5.3833,12 12,12s12,-5.3833 12,-12s-5.3833,-12 -12,-12z"/>
  <circle id="svg_27" fill="#6c63ff" r="7" cy="152.09857" cx="627.85558"/>
  <rect id="svg_28" fill="#3f3d56" height="2" width="109.30713" y="226.12787" x="246.85558"/>
  <path id="svg_29" fill="#3f3d56" d="m210.85558,226.09857c0,-7.71973 6.28027,-14 14,-14s14,6.28027 14,14s-6.28027,14 -14,14s-14,-6.28027 -14,-14zm2,0c0,6.6167 5.3833,12 12,12s12,-5.3833 12,-12c0,-6.6167 -5.3833,-12 -12,-12s-12,5.3833 -12,12z"/>
  <circle id="svg_30" fill="#6c63ff" r="7" cy="226.09857" cx="224.85558"/>
  <path fill="#6c63ff" d="m118.46,111.00492l-21.978,-5.305l-6.06299,14.4s-29.69897,5.0171 -31.21698,27.7531c0,0 -5.91904,29.84489 -2.13004,38.18189s13.13004,37.81811 13.13004,37.81811c0,0 -14.79001,36.73 -11,39s85,10.547 85,6s0.927,-58.57011 0.927,-58.57011l-3.17999,-81.85l-20.45703,-7.575l-3.03201,-9.852l0,0l0,-0.001l0,0.00001z" id="ab-3065"/>
 </g>
</svg>