<svg width="809.67538" height="462.57748" xmlns="http://www.w3.org/2000/svg" data-name="Layer 1">
 <g>
  <title>Layer 1</title>
  <path d="m133.08769,210.32748l0,-130a7,7 0 1 1 14,0l0,130a7,7 0 0 1 -14,0z" fill="#4c4c4c" id="svg_1"/>
  <path d="m116.33769,210.32748l0,-130a7,7 0 1 1 14,0l0,130a7,7 0 0 1 -14,0z" fill="#4c4c4c" id="svg_2"/>
  <path d="m99.58769,210.32748l0,-130a7,7 0 1 1 14,0l0,130a7,7 0 0 1 -14,0z" fill="#4c4c4c" id="svg_3"/>
  <path d="m731.99199,417.96354a24.4405,24.4405 0 0 1 -8.27051,-1.43554l-0.40918,-0.14746l0.18848,-0.90528c-4.752,-9.60058 -3.09082,-22.75293 4.25293,-33.56738c6.67675,-9.83105 16.8291,-16.97851 25.78613,-23.28418a6.96667,6.96667 0 0 1 10.84765,7.0293l-3.20312,16.43359c-2.31152,11.85547 -5.06152,23.07617 -13.2168,30.07324a24.904,24.904 0 0 1 -15.97558,5.80371z" fill="#4c4c4c" id="svg_4"/>
  <path d="m752.96855,446.36101a18.621,18.621 0 0 1 -15.56348,-8.56543l-0.23242,-0.36133l0.55371,-0.48828c1.43262,-7.81836 8.17285,-14.78418 17.22266,-17.78028c8.22558,-2.72265 17.30566,-2.27734 25.31152,-1.88574l0,0a5.34914,5.34914 0 0 1 3.32324,9.31445l-9.00781,8.13086c-6.5459,5.90723 -13.07422,11.24121 -20.94922,11.62305q-0.32958,0.01318 -0.6582,0.0127z" fill="#4c4c4c" id="svg_5"/>
  <path d="m725.0134,455.05296c-1.33022,-9.90531 -2.698,-19.93784 -1.765,-29.94935c0.82868,-8.89127 3.48213,-17.57556 8.88423,-24.69608a40.51552,40.51552 0 0 1 10.3105,-9.55122c1.03105,-0.6653 1.98,1.00511 0.95345,1.6675a38.87072,38.87072 0 0 0 -15.1119,18.64c-3.29008,8.55479 -3.81842,17.88022 -3.25145,26.96787c0.34287,5.49564 1.06951,10.95525 1.80176,16.40786a1.00364,1.00364 0 0 1 -0.65971,1.18778a0.948,0.948 0 0 1 -1.1619,-0.67441l0.00002,0.00005z" fill="#4c4c4c" id="svg_6"/>
  <path d="m721.25411,460.74705c6.40255,-11.58138 13.829,-24.45276 27.09868,-28.56665a29.61321,29.61321 0 0 1 11.39812,-1.20314c1.21015,0.10668 0.908,2.01365 -0.3,1.90718a27.63308,27.63308 0 0 0 -18.18964,4.91957c-5.12878,3.56882 -9.12211,8.53043 -12.502,13.792c-2.0703,3.22288 -3.92475,6.58244 -5.77955,9.93753c-0.59275,1.07222 -2.32531,0.29825 -1.72564,-0.78651l0.00003,0.00002z" fill="#4c4c4c" id="svg_7"/>
  <path d="m718.37285,460.57749l6.46484,0.14789l-38.98,-208.23785l-6.46484,1.21814l10.17871,54.01971l-32.79344,0l10.17871,-54.01971l-6.46435,-1.21814l-38.65479,208.23785l6.13916,-0.14789l20.32227,-107.85211l49.75146,0l20.32227,107.85211zm-68.56641,-115.85211l5.46436,-29l35.8081,0l5.46436,29l-46.73682,0z" fill="#4c4c4c" id="svg_8"/>
  <path d="m436.08761,213.64438l0,-68.38541c0,-2.03045 3.14014,-3.6823 7,-3.6823s7,1.65185 7,3.6823l0,68.38541c0,2.03045 -3.14013,3.6823 -7,3.6823s-7,-1.65185 -7,-3.6823z" fill="#4c4c4c" id="svg_9"/>
  <path d="m419.33761,213.64438l0,-68.38541c0,-2.03045 3.14014,-3.6823 7,-3.6823s7,1.65185 7,3.6823l0,68.38541c0,2.03045 -3.14013,3.6823 -7,3.6823s-7,-1.65185 -7,-3.6823z" fill="#4c4c4c" id="svg_10"/>
  <path d="m402.58761,213.64438l0,-68.38541c0,-2.03045 3.14014,-3.6823 7,-3.6823s7,1.65185 7,3.6823l0,68.38541c0,2.03045 -3.14013,3.6823 -7,3.6823s-7,-1.65185 -7,-3.6823z" fill="#4c4c4c" id="svg_11"/>
  <path d="m543.50175,163.35385a1.49926,1.49926 0 0 0 -0.65625,-1.02832l-52.77295,-34.83879a3.95447,3.95447 0 0 0 1.894,-1.65924l0.00048,0a4.01219,4.01219 0 0 0 -1.46435,-5.46411l-4.33008,-2.5a4.01141,4.01141 0 0 0 -5.46387,1.46411a3.939,3.939 0 0 0 -0.50683,1.64282l-38.09375,-25.14837a23.059,23.059 0 0 0 -14.27046,-13.15615l0,-11.08832l-14,0l0,11.08838a23.00744,23.00744 0 0 0 -16,21.91162l0,3l14,0a9,9 0 0 0 18,0l14,0l0,-3a23.12345,23.12345 0 0 0 -0.40479,-4.28589l96.36915,63.61988l-40.03125,48.67027c-0.311,-0.0014 -0.62012,-0.00421 -0.93311,-0.00421c-3.19385,0 -6.28857,0.0755 -9.2373,0.20551a3.957,3.957 0 0 0 0.22851,-1.54376a4.01168,4.01168 0 0 0 -4.20264,-3.78644l-4.99316,0.26019a4.01193,4.01193 0 0 0 -3.78662,4.20276a3.93234,3.93234 0 0 0 0.542,1.77191c-8.82911,0.93831 -14.55079,2.23176 -14.55079,2.88978c0,1.07831 15.36328,0.05176 34.59229,0.00238a1.49482,1.49482 0 0 0 2.56591,0.45026l0.37061,-0.45007c19.17236,0.0534 34.47119,1.07348 34.47119,-0.00257c0,-1.01458 -13.602,-3.53839 -31.22607,-3.94311l39.56591,-48.10425a1.50081,1.50081 0 0 0 0.32422,-1.17627z" fill="#4c4c4c" id="svg_12"/>
  <path d="m544.94516,461.07774l-123.21582,0a9.40286,9.40286 0 0 1 -9.3916,-9.39258l0,-202.21586a8.40146,8.40146 0 0 0 -8.39209,-8.3916l-288.21582,0a8.40146,8.40146 0 0 0 -8.39209,8.3916l0,202.21582a9.40328,9.40328 0 0 1 -9.39205,9.39262l-4.21582,0a9.40328,9.40328 0 0 1 -9.39209,-9.39258l0,-213.10742a22.52523,22.52523 0 0 1 22.5,-22.5l425,0a22.52554,22.52554 0 0 1 22.5,22.5l0,213.10738a9.4037,9.4037 0 0 1 -9.39262,9.39262z" fill="#4c4c4c" id="svg_13"/>
  <rect x="412.83769" y="268.57748" width="141" height="6" fill="#fff" id="svg_14"/>
  <rect x="412.83769" y="349.57748" width="141" height="6" fill="#fff" id="svg_15"/>
  <path d="m296.12131,215.09009l-4.05245,-1.70635l-2.78,-20.315l-37.02017,0l-3.01327,20.232l-3.62556,1.81276a0.861,0.861 0 0 0 0.38507,1.631l49.77242,0a0.86091,0.86091 0 0 0 0.33396,-1.65441z" fill="#e6e6e6" id="svg_16"/>
  <path d="m361.9088,195.77158l-181.85365,0a3.60288,3.60288 0 0 1 -3.59478,-3.60285l0,-25.64375l189.04321,0l0,25.64376a3.60291,3.60291 0 0 1 -3.59478,3.60284z" fill="#ccc" id="svg_17"/>
  <path d="m365.69369,178.64483l-189.39931,0l0,-109.72419a4.34819,4.34819 0 0 1 4.34331,-4.34316l180.71262,0a4.34823,4.34823 0 0 1 4.34337,4.34316l0.00001,109.72419z" fill="#3f3d56" id="svg_18"/>
  <path d="m354.38161,170.68104l-166.77516,0a3.352,3.352 0 0 1 -3.34838,-3.34828l0,-91.44321a3.35222,3.35222 0 0 1 3.34838,-3.34848l166.77516,0a3.35221,3.35221 0 0 1 3.34837,3.34848l0,91.44319a3.352,3.352 0 0 1 -3.34837,3.3483z" fill="#fff" id="svg_19"/>
  <path d="m541.33925,83.03864a11.02534,11.02534 0 0 1 12.59153,11.28127l36.5651,14.07449l-16.5663,11.83611l-32.183,-15.18a11.08508,11.08508 0 0 1 -0.40728,-22.01189l-0.00005,0.00002z" fill="#9e616a" id="svg_20"/>
  <path d="m680.17698,76.12953l6.18593,11.24675a32.29577,32.29577 0 0 1 -10.96259,18.21081c-9.47092,7.98759 -58.99165,37.73652 -58.99165,37.73652l-62.51748,-31.3853l10.93659,-14.53307l49.0822,16.449l0,0a160.76689,160.76689 0 0 1 64.16431,-37.09366l2.10269,-0.63105z" fill="#b21313" id="svg_21"/>
  <ellipse cx="668.67452" cy="246.33609" rx="48.7906" ry="15.89806" fill="#4c4c4c" id="svg_22"/>
  <polygon points="559.217 447.105 546.261 443.524 553.909 391.846 573.031 397.133 559.217 447.105" fill="#9e616a" id="svg_23"/>
  <path d="m559.04951,460.57748l-41.77549,-11.54807l0.146,-0.5284a16.8709,16.8709 0 0 1 20.75451,-11.76586l0.001,0.00028l25.515,7.05326l-4.64102,16.78879z" fill="#2f2e41" id="svg_24"/>
  <polygon points="521.653 447.273 509.356 441.843 524.448 391.831 542.596 399.844 521.653 447.273" fill="#9e616a" id="svg_25"/>
  <path d="m519.52582,460.57748l-39.64882,-17.50774l0.22143,-0.5015a16.87091,16.87091 0 0 1 22.2465,-8.61851l0.001,0.00043l24.21611,10.69321l-7.03622,15.93411z" fill="#2f2e41" id="svg_26"/>
  <path d="m706.6462,207.46697s6.51743,20.193 -33.47128,45.73007l-51.50111,51.31877l-53.51249,128.006l-31.76954,-14.243l6.23094,-16.63206l4.18106,-11.16038l2.1391,-5.70985l2.293,-6.12056l34.01181,-90.78669l28.56991,-50.02329l0.82879,-27.14347l7.02743,-19.1336l50.98344,-18.09089l33.98894,33.98895z" fill="#2f2e41" id="svg_27"/>
  <path d="m680.6462,208.46697s6.51743,20.193 -33.47128,45.73007l-51.50111,51.31877l-53.51249,128.006l-31.76954,-14.243l6.23094,-16.63206l4.18106,-11.16038l2.1391,-5.70985l2.293,-6.12056l34.01181,-90.78669l9.56593,-16.74906a305.08059,305.08059 0 0 1 45.64647,-60.81518l9.3776,-9.69385l1,-15l21.81956,-12.13316l33.98895,33.98895z" fill="#2f2e41" id="svg_28"/>
  <path d="m649.83769,109.61118l16,-34l27.92154,-3.80877s21.80268,27.77702 16.07846,66.80877c-2.14658,14.63691 -3.89579,29.209 -4,42c-0.02773,3.40345 2.94968,4.92317 3,8c0.04943,3.02251 -5.64319,7.946 -4,10a17.53042,17.53042 0 0 1 4,10c-1.98145,4.71619 -61.956,-20.834 -87.16406,-17.0423l28.16406,-81.9577z" fill="#b21313" id="svg_29"/>
  <circle cx="865.87004" cy="910.95197" r="25.25457" fill="#9e616a" transform="rotate(-59.2709 2.9207 650.46)" id="svg_30"/>
  <path d="m683.93315,32.71298c-0.04839,0.66454 -0.11521,1.54463 -0.1922,2.54032a13.191,13.191 0 0 0 2.19881,7.6799c1.41285,2.3894 -0.27318,16.82081 -0.27318,16.82081c41.36829,-28.83633 8.68128,-57.80695 -4.105,-55.23166c0.26695,-3.66713 -10.16122,-2.21439 -10.16122,-2.21439c-3.97342,-6.18782 -12.68186,2.026 -12.68186,2.026l1.68045,-2.82693c-6.761,1.71972 -13.4435,22.61535 -13.4435,22.61535c2.29292,9.01466 37.24472,4.92347 36.9777,8.5906z" fill="#2f2e41" id="svg_31"/>
  <path d="m523.45302,122.98603a231.84951,231.84951 0 0 0 33.32325,-62.191a5.95528,5.95528 0 0 0 -2.81225,-7.16889l-48.64533,-26.06521a5.87785,5.87785 0 0 0 -5.15658,-0.20934a5.97828,5.97828 0 0 0 -3.40674,3.99181a141.635,141.635 0 0 1 -31.06747,57.98184a5.9766,5.9766 0 0 0 -1.43709,5.04726a5.87782,5.87782 0 0 0 3.03039,4.17742l48.6454,26.06535a5.95525,5.95525 0 0 0 7.52642,-1.62924z" fill="#ccc" id="svg_32"/>
  <path d="m520.13346,120.49163a1.79733,1.79733 0 0 1 -2.24514,0.46367l-48.64563,-26.06578a1.72454,1.72454 0 0 1 -0.90327,-1.24156a1.82454,1.82454 0 0 1 0.44986,-1.56119a145.80329,145.80329 0 0 0 31.98281,-59.69024a1.82511,1.82511 0 0 1 1.04924,-1.23878a1.72585,1.72585 0 0 1 1.53686,0.06353l48.6445,26.06506a1.797,1.797 0 0 1 0.85764,2.12755a227.6977,227.6977 0 0 1 -32.72687,61.07774z" fill="#fff" id="svg_33"/>
  <path d="m503.1146,55.9856l33.5522,19.66614c3.33827,1.95668 6.36129,-3.22725 3.02831,-5.18082l-33.5522,-19.66618c-3.33828,-1.95668 -6.3613,3.22725 -3.02831,5.18083l0,0.00003z" fill="#6c63ff" id="svg_34"/>
  <path d="m497.1146,66.9856l33.5522,19.66614c3.33827,1.95668 6.36129,-3.22725 3.02831,-5.18082l-33.5522,-19.66618c-3.33828,-1.95668 -6.3613,3.22725 -3.02831,5.18083l0,0.00003z" fill="#6c63ff" id="svg_35"/>
  <path d="m490.1146,78.9856l33.5522,19.66614c3.33827,1.95668 6.36129,-3.22725 3.02831,-5.18082l-33.5522,-19.66618c-3.33828,-1.95668 -6.3613,3.22725 -3.02831,5.18083l0,0.00003z" fill="#6c63ff" id="svg_36"/>
  <path d="m483.1146,88.9856l33.5522,19.66614c3.33827,1.95668 6.36129,-3.22725 3.02831,-5.18082l-33.5522,-19.66618c-3.33828,-1.95668 -6.3613,3.22725 -3.02831,5.18083l0,0.00003z" fill="#6c63ff" id="svg_37"/>
  <path d="m636.06936,204.66397l12.59633,28.32548a4.46863,4.46863 0 0 1 -0.31887,4.24347a4.4794,4.4794 0 0 1 -4.54,2.01919a4.12769,4.12769 0 0 1 -0.86825,-0.23164a4.51166,4.51166 0 0 1 -2.49644,-2.374l-12.59631,-28.32548a4.5,4.5 0 1 1 8.22353,-3.657l0.00001,-0.00002z" fill="#6c63ff" id="svg_38"/>
  <path d="m647.64984,230.70513l2.52357,5.71684l1.29034,8.10487a2.45095,2.45095 0 0 1 -4.3287,1.9247l-5.22193,-6.49731l-2.48681,-5.5921l8.22353,-3.657z" fill="#3f3d56" id="svg_39"/>
  <path d="m625.04657,196.78329l1.8051,11.34012a2.45233,2.45233 0 0 0 3.41851,1.8555l1.78952,-0.7958l3.45383,7.76666a1,1 0 0 0 1.82745,-0.81266l-3.45383,-7.76667l1.78953,-0.7958a2.4555,2.4555 0 0 0 1.24837,-3.23242a2.46816,2.46816 0 0 0 -0.3365,-0.5488l-7.2116,-8.93584a2.45251,2.45251 0 0 0 -4.33038,1.92571z" fill="#3f3d56" id="svg_40"/>
  <path d="m630.27213,217.25159a11.02532,11.02532 0 0 1 14.67057,-8.40167l24.86617,-30.27824l6.02148,19.44936l-24.5365,25.77093a11.08508,11.08508 0 0 1 -21.02172,-6.54038z" fill="#9e616a" id="svg_41"/>
  <path d="m661.57669,215.28412l-10.95185,-15.81938l31.09908,-41.46526l-16.02066,-34.33l1.16655,-40.83515l13.23866,-2.44552l0.16436,0.08244a32.53741,32.53741 0 0 1 14.09925,16.42272c3.30263,8.25632 10.67508,39.25047 14.77594,56.99017a20.67916,20.67916 0 0 1 -5.56052,19.38915l-42.01081,42.01083z" fill="#b21313" id="svg_42"/>
  <path d="m353.21385,138.84565a14.71855,14.71855 0 0 0 -0.09078,2.31576l-56.07285,40.79387l-15.40453,-6.81744l-13.3273,21.90343l26.09783,14.71916a11.18571,11.18571 0 0 0 13.31094,-1.741l56.43542,-55.12332a14.67718,14.67718 0 1 0 -10.94871,-16.05048l-0.00002,0.00002z" fill="#ffb6b6" id="svg_43"/>
  <path d="m295.2369,183.44655l-16.35194,27.248a6.292,6.292 0 0 1 -9.388,1.62488l-24.4831,-20.10741a17.47405,17.47405 0 0 1 18.07083,-29.91328l29.16955,12.09913a6.292,6.292 0 0 1 2.98263,9.04871l0.00003,-0.00003z" fill="#6c63ff" id="svg_44"/>
  <rect x="1097.89931" y="1591.04041" width="32.05245" height="53.1155" fill="#cacaca" id="svg_45" transform="rotate(-180 677.563 1005.16)"/>
  <rect x="-30.16759" y="1062.06659" width="7.3266" height="92.96452" fill="#cacaca" id="svg_46" transform="rotate(-55.8405 -513.693 465.434)"/>
  <rect x="-150.70372" y="747.173" width="92.96452" height="7.3266" fill="#cacaca" id="svg_47" transform="rotate(-34.1597 -489.758 107.721)"/>
  <circle cx="330.48928" cy="450.50386" r="10.07363" fill="#cacaca" id="svg_48"/>
  <circle cx="240.74241" cy="449.50386" r="10.07363" fill="#cacaca" id="svg_49"/>
  <circle cx="151.91132" cy="450.50386" r="10.07363" fill="#cacaca" id="svg_50"/>
  <rect x="237.07927" y="397.30415" width="7.32628" height="52.19971" fill="#cacaca" id="svg_51"/>
  <rect x="1107.05715" y="1469.32534" width="13.73677" height="70.5154" fill="#cacaca" transform="rotate(-180 677.563 930.152)" id="svg_52"/>
  <path d="m201.82157,331.45188l0,-16.48414a11.4602,11.4602 0 0 1 11.4473,-11.4473l61.35756,0a11.4602,11.4602 0 0 1 11.44726,11.4473l0,16.48412a11.46021,11.46021 0 0 1 -11.4473,11.44731l-61.35752,0a11.46021,11.46021 0 0 1 -11.4473,-11.44729z" fill="#191919" id="svg_53"/>
  <polygon points="312.641 444.129 329.609 444.128 337.683 400.117 312.639 400.118 312.641 444.129" fill="#ffb8b8" id="svg_54"/>
  <path d="m308.31343,460.57748l54.715,-0.002l0,-0.69206a21.29613,21.29613 0 0 0 -21.29591,-21.29641l-0.00219,0l-33.418,0.00135l0.0011,21.98912z" fill="#2f2e41" id="svg_55"/>
  <path d="m338.02118,416.83691l33.8292,-75.86049a27.80148,27.80148 0 0 0 -12.206,-35.68844l-73.377,-39.34744l-33.48351,-2.848l-30.88625,-2.80744l-0.22269,0.37712c-0.28487,0.4812 -6.92568,11.95156 -2.43675,24.529c3.405,9.54016 12.26178,16.992 26.32433,22.14865c32.82355,12.03536 70.74125,22.32174 85.51986,26.18485a4.77656,4.77656 0 0 1 3.06054,2.43573a4.84211,4.84211 0 0 1 0.27169,3.87392l-31.42862,70.61047a6.22842,6.22842 0 0 0 5.27258,8.34528l23.48377,1.70988q0.29906,0.02838 0.59541,0.02838a6.2243,6.2243 0 0 0 5.68344,-3.69147z" fill="#2f2e41" id="svg_56"/>
  <polygon points="301.568 444.129 318.536 444.128 326.61 400.117 301.566 400.118 301.568 444.129" fill="#ffb8b8" id="svg_57"/>
  <path d="m297.24045,460.57748l54.715,-0.002l0,-0.69206a21.29613,21.29613 0 0 0 -21.29591,-21.29641l-0.0022,0l-33.418,0.00135l0.00111,21.98912z" fill="#2f2e41" id="svg_58"/>
  <path d="m325.56409,420.98927l33.8292,-75.86048a27.80148,27.80148 0 0 0 -12.206,-35.68844l-73.377,-39.34744l-33.4835,-2.848l-24.19165,-2.09847l0.00331,-0.33186c-0.28487,0.4812 -6.92568,11.95157 -2.43674,24.529c3.405,9.54017 5.34117,16.992 19.40372,22.14865c32.82355,12.03537 70.74125,22.32175 85.51985,26.18485a4.77664,4.77664 0 0 1 3.06055,2.43573a4.84215,4.84215 0 0 1 0.27169,3.87392l-31.42862,70.61047a6.22843,6.22843 0 0 0 5.27257,8.34528l23.48377,1.70988q0.29907,0.02838 0.59542,0.02839a6.2243,6.2243 0 0 0 5.68343,-3.69148z" fill="#2f2e41" id="svg_59"/>
  <circle cx="332.98136" cy="774.65057" r="33.99544" fill="#ffb8b8" transform="rotate(-76.6227 -133.452 469.566)" id="svg_60"/>
  <path d="m388.45302,216.98603a231.84951,231.84951 0 0 0 33.32325,-62.191a5.95528,5.95528 0 0 0 -2.81225,-7.16889l-48.64533,-26.06521a5.87785,5.87785 0 0 0 -5.15658,-0.20934a5.97828,5.97828 0 0 0 -3.40674,3.99181a141.635,141.635 0 0 1 -31.06747,57.98184a5.9766,5.9766 0 0 0 -1.43709,5.04726a5.87782,5.87782 0 0 0 3.03039,4.17742l48.6454,26.06535a5.95525,5.95525 0 0 0 7.52642,-1.62924z" fill="#ccc" id="svg_61"/>
  <path d="m385.13346,214.49163a1.79733,1.79733 0 0 1 -2.24514,0.46367l-48.64563,-26.06578a1.72454,1.72454 0 0 1 -0.90327,-1.24156a1.82454,1.82454 0 0 1 0.44986,-1.56119a145.80329,145.80329 0 0 0 31.98281,-59.69024a1.82511,1.82511 0 0 1 1.04924,-1.23878a1.72585,1.72585 0 0 1 1.53686,0.06353l48.6445,26.06506a1.797,1.797 0 0 1 0.85764,2.12755a227.6977,227.6977 0 0 1 -32.72687,61.07774z" fill="#fff" id="svg_62"/>
  <path d="m368.1146,149.9856l33.5522,19.66614c3.33827,1.95668 6.36129,-3.22725 3.02831,-5.18082l-33.5522,-19.66618c-3.33828,-1.95668 -6.3613,3.22725 -3.02831,5.18083l0,0.00003z" fill="#ccc" id="svg_63"/>
  <path d="m362.1146,160.9856l33.5522,19.66614c3.33827,1.95668 6.36129,-3.22725 3.02831,-5.18082l-33.5522,-19.66618c-3.33828,-1.95668 -6.3613,3.22725 -3.02831,5.18083l0,0.00003z" fill="#ccc" id="svg_64"/>
  <path d="m357.40052,171.94279l30.514,18.11469c3.036,1.80232 6.283,-1.92391 3.25183,-3.72337l-30.514,-18.11469c-3.036,-1.80232 -6.283,1.92391 -3.25183,3.72337z" fill="#ccc" id="svg_65"/>
  <path d="m348.1146,182.9856l33.5522,19.66614c3.33827,1.95668 6.36129,-3.22725 3.02831,-5.18082l-33.5522,-19.66618c-3.33828,-1.95668 -6.3613,3.22725 -3.02831,5.18083l0,0.00003z" fill="#ccc" id="svg_66"/>
  <path d="m290.87198,268.69426l-67.27393,-0.40234l-0.01831,-0.47852c-1.28271,-33.75391 2.84253,-64.33008 12.61157,-93.47461c0.13819,-1.09082 0.28736,-2.25683 0.43384,-3.40137c1.6687,-13.03906 2.99365,-23.3916 15.39282,-27.24707a8.81478,8.81478 0 0 1 -1.75195,-4.73437a8.61324,8.61324 0 0 1 2.145,-6.29981a8.28292,8.28292 0 0 1 5.75268,-2.80664l23.94532,-0.81543a5.60432,5.60432 0 0 1 3.47656,1.17871a9.55871,9.55871 0 0 1 2.78369,12.07715c-0.282,0.56153 -0.38989,0.81739 -0.43115,0.92871c0.85132,4.46 3.3772,9.75782 6.0498,15.36426c3.82715,8.02735 8.1648,17.125 9.28,26.8584a49.12715,49.12715 0 0 1 -0.74121,15.749a31.03735,31.03735 0 0 0 -0.34155,8.45313c0.21875,4.18164 0.425,8.12988 -1.93848,11.94824c-0.60254,1.03516 -1.292,2.13867 -2.10083,3.36133l-3.325,7.94824l-3.94887,35.79299z" fill="#b21313" id="svg_67"/>
  <path d="m189.91637,315.9305l0,-137.46156a16.91412,16.91412 0 0 1 16.89506,-16.89506l4.67283,0a16.91412,16.91412 0 0 1 16.89506,16.89506l0,137.46156a16.91412,16.91412 0 0 1 -16.89506,16.89506l-4.67283,0a16.91412,16.91412 0 0 1 -16.89506,-16.89506z" fill="#191919" id="svg_68"/>
  <path d="m370.32048,192.18874a14.71807,14.71807 0 0 0 -1.29948,1.91893l-69.15783,5.04965l-9.48506,-13.9216l-22.88111,11.56857l14.39633,26.27728a11.18571,11.18571 0 0 0 12.22445,5.54752l77.02959,-17.02881a14.67718,14.67718 0 1 0 -0.82689,-19.41154z" fill="#ffb6b6" id="svg_69"/>
  <path d="m297.53589,199.46674l-28.2712,14.51136a6.292,6.292 0 0 1 -8.83128,-3.5754l-10.18069,-30.00139a17.46464,17.46464 0 0 1 7.60797,-23.43557c-12.53214,6.43264 13.56852,-11.83946 23.53011,7.56782l18.38824,25.67342a6.292,6.292 0 0 1 -2.2431,9.25978l-0.00005,-0.00002z" fill="#b21313" id="svg_70"/>
  <path d="m255.91348,119.4384c-2.04614,0 -4.30395,-0.98633 -6.84937,-2.98437a43.51291,43.51291 0 0 1 -13.26538,-51.0254c1.85083,-4.42089 5.31226,-10.42968 11.29248,-13.95117c4.29883,-2.53027 9.34864,-3.44433 13.74463,-4.10254c3.80567,-0.57031 7.65918,-1.02441 11.45313,-1.34765c4.53345,-0.3877 9.77,-0.64942 14.54614,1.165c3.49927,1.33007 6.47778,3.67871 9.35816,5.95019c1.0039,0.791 2.042,1.61035 3.082,2.36817a22.69659,22.69659 0 0 0 8.52758,4.1416a4.6711,4.6711 0 0 1 3.12647,2.29a4.75352,4.75352 0 0 1 0.33374,3.92871c-0.44922,1.25976 -0.85474,2.39551 -0.03442,3.626a3.23958,3.23958 0 0 0 2.70605,1.37891a1.67693,1.67693 0 0 1 1.41846,0.74023a1.70947,1.70947 0 0 1 0.18554,1.58985l-0.13159,0.33887a2.1809,2.1809 0 0 1 1.70069,1.10644a2.23484,2.23484 0 0 1 -0.41089,2.76758a22.40406,22.40406 0 0 1 -10.91773,5.71387a21.82074,21.82074 0 0 1 -8.499,-0.01953l-0.45117,-0.0879l0.05542,-0.5c-11.344,-4.04589 -21.584,2.82032 -27.42163,10.66993l-0.84327,-0.53223a2.4192,2.4192 0 0 0 0.10718,-1.89648a2.94074,2.94074 0 0 0 -1.45532,-1.72071a3.80791,3.80791 0 0 0 -4.14429,0.82715a5.6515,5.6515 0 0 0 -1.54956,4.28613a15.33941,15.33941 0 0 0 1.25147,4.80567c0.27441,0.72851 0.55835,1.48242 0.78906,2.24219a18.31127,18.31127 0 0 1 -0.96753,13.03515c-0.88354,1.86035 -2.48144,4.23242 -5.07568,4.96777a6.07118,6.07118 0 0 1 -1.66137,0.22857z" fill="#2f2e41" id="svg_71"/>
  <path d="m808.48469,462.57748l-807.294,0a1.19069,1.19069 0 0 1 0,-2.38137l807.294,0a1.19068,1.19068 0 0 1 0,2.38137z" fill="#cacaca" id="svg_72"/>
 </g>

</svg>